Coordinates
version=1
nRows=13
nColumns=36
inDegrees=yes

Units are S.I. units (second, meters, Newtons, ...)
If the header above contains a line with 'inDegrees', this indicates whether rotational values are in degrees (yes) or radians (no).

endheader
time	pelvis_tilt	pelvis_list	pelvis_rotation	pelvis_tx	pelvis_ty	pelvis_tz	hip_flexion_r	hip_adduction_r	hip_rotation_r	knee_angle_r	knee_angle_r_beta	ankle_angle_r	subtalar_angle_r	mtp_angle_r	hip_flexion_l	hip_adduction_l	hip_rotation_l	knee_angle_l	knee_angle_l_beta	ankle_angle_l	subtalar_angle_l	mtp_angle_l	lumbar_extension	lumbar_bending	lumbar_rotation	arm_flex_r	arm_add_r	arm_rot_r	elbow_flex_r	pro_sup_r	arm_flex_l	arm_add_l	arm_rot_l	elbow_flex_l	pro_sup_l
      2.73333330	     -6.14442068	     17.08406157	      8.86568490	      1.25176736	      0.79707366	     -0.19061675	     76.66637824	    -25.72699612	     11.57131008	     44.32637859	      0.77364125	      8.93522237	      3.35565873	     -7.49999987	     49.54737632	     20.88188885	    -11.97612556	     71.99449834	      1.25654104	     28.62165812	     -9.64493181	     -7.49999987	    -40.40830840	    -16.65161019	    -16.84081846	     52.17085076	     -0.06998061	     61.30587587	    115.46958956	     83.26884813	     67.56248479	    -10.73437922	     67.78167813	    123.16461013	     84.65490535
      2.75000000	     -6.29948620	     17.18768352	      8.95278103	      1.25203709	      0.79645657	     -0.19053876	     76.88988230	    -25.73295566	     11.68016523	     44.41619172	      0.77520879	      9.04801800	      3.47312847	     -7.49999987	     49.90589964	     20.88409994	    -12.16836052	     72.14532380	      1.25917344	     28.65021806	     -9.86140691	     -7.49999987	    -40.51367165	    -16.61276852	    -16.99112539	     52.27360416	     -0.09128576	     61.48120471	    115.00721109	     82.12773203	     67.78601760	    -11.01585193	     67.97120367	    122.75111284	     83.47180809
      2.76666670	     -6.27688138	     17.29893013	      8.99808913	      1.25228420	      0.79640137	     -0.19024115	     76.92410452	    -25.75182152	     11.76710131	     44.45982984	      0.77597042	      9.07910701	      3.56588399	     -7.49999987	     50.06427342	     20.92176634	    -12.32067622	     72.24748169	      1.26095643	     28.83031150	    -10.00711139	     -7.49999987	    -40.82266727	    -16.42996860	    -17.20849141	     52.88316770	      0.03342475	     62.20853177	    114.39181372	     83.33993676	     67.96436953	    -11.52050151	     68.17748142	    122.86509712	     84.42903700
      2.78333330	     -6.48688399	     17.21305405	      9.10418189	      1.25249729	      0.79565625	     -0.19039756	     77.04950647	    -25.72970430	     11.68518004	     44.50922430	      0.77683251	      9.26592793	      3.68825171	     -7.49999987	     50.44477602	     20.88799041	    -12.28193490	     72.38730055	      1.26339673	     29.12152913	     -9.85772911	     -7.49999987	    -40.84206906	    -16.20092119	    -17.04692074	     53.17254047	     -0.12273621	     62.71045061	    114.81422914	     81.89286999	     68.05474046	    -11.38147638	     68.26905500	    122.70154727	     82.90424526
      2.80000000	     -6.57679149	     17.20471203	      9.18815084	      1.25769662	      0.79609714	     -0.18760038	     77.04806367	    -25.67577694	     11.71600387	     44.50186410	      0.77670405	      9.29031344	      3.70959312	     -7.49999987	     50.51913101	     20.88756453	    -12.24647041	     72.39438020	      1.26352029	     29.19580394	     -9.89671387	     -7.49999987	    -41.11191599	    -16.21229921	    -16.93234711	     53.04914750	     -0.06198490	     62.79010976	    114.79040798	     81.90928496	     67.96372562	    -11.46714049	     68.36200377	    122.68436199	     82.92341953
      2.81666670	     -6.83710453	     17.09425071	      9.15080478	      1.25827327	      0.79290486	     -0.18813506	     77.18058597	    -25.41472880	     11.80184798	     44.66489463	      0.77954947	      9.81522740	      3.91069156	     -7.49999987	     50.68177079	     20.75372432	    -12.19828251	     72.41627176	      1.26390237	     29.99707099	     -9.64311729	     -7.49999987	    -40.95997917	    -16.13857552	    -16.62757919	     52.56105938	      0.06434878	     63.52929968	    115.08488226	     80.33933694	     67.80163190	    -11.68523174	     68.88014450	    123.28437994	     81.29362552
      2.83333330	     -7.06907486	     17.01475432	      9.17430461	      1.25805377	      0.78967540	     -0.18763778	     77.36465246	    -25.14063430	     12.02903245	     44.93230851	      0.78421672	      9.91157940	      3.75628400	     -7.49999987	     50.92582341	     20.63466138	    -12.19604589	     72.52531968	      1.26580562	     30.44907627	     -9.56023853	     -7.49999987	    -40.82799433	    -16.14664164	    -16.48881101	     52.70779065	      0.18277153	     64.02937949	    115.47217724	     79.17813293	     68.11545385	    -11.51598607	     68.75239569	    123.84114268	     80.02791872
      2.85000000	     -7.29546172	     16.92482741	      9.23871483	      1.25810005	      0.78891201	     -0.18780678	     77.52434675	    -24.86181723	     12.35064005	     45.30018261	      0.79063734	      9.87566812	      3.49885182	     -7.49999987	     51.17580041	     20.59960791	    -12.09326278	     72.61808103	      1.26742461	     30.82685217	     -9.58426068	     -7.49999987	    -40.79384971	    -16.09460975	    -16.50525300	     52.66333411	      0.21640123	     64.38460612	    115.58876832	     78.26668013	     68.31702160	    -11.47246819	     69.11208221	    124.21733896	     79.06979175
      2.86666670	     -7.40232769	     16.88345485	      9.35754090	      1.25753801	      0.78627938	     -0.18731247	     77.66888152	    -24.68512489	     12.66579850	     45.62056909	      0.79622914	      9.63202538	      3.21193632	     -7.49999987	     51.44296475	     20.61188912	    -12.04758897	     72.79200499	      1.27046016	     31.01939271	     -9.79834682	     -7.49999987	    -40.96571243	    -15.98568780	    -16.74706201	     52.49916054	      0.59022251	     64.31743626	    115.78995189	     77.43143998	     68.68070500	    -11.64730512	     69.74462086	    124.47694491	     78.17827754
      2.88333330	     -7.56789235	     16.83603846	      9.66299253	      1.25726081	      0.78353975	     -0.18734801	     77.88820153	    -24.66907616	     12.91596478	     45.87309523	      0.80063655	      9.50336268	      2.87948491	     -7.49999987	     51.81108072	     20.68274551	    -11.98097657	     73.06629106	      1.27524735	     31.14097064	    -10.05511235	     -7.49999987	    -41.12506875	    -15.78574409	    -17.07584585	     51.86076158	      1.04015027	     63.36061536	    115.73515625	     86.78161934	     68.98496963	    -11.98282460	     70.38283973	    124.52147238	     86.49784099
      2.90000000	     -7.69502954	     16.77964396	     10.02714439	      1.25189730	      0.78036731	     -0.18952630	     78.15760779	    -24.69252115	     13.13799406	     46.23291557	      0.80691660	      9.53265293	      2.73276857	     -7.49999987	     52.35180483	     20.65074636	    -12.09017058	     73.56748528	      1.28399484	     31.35695836	    -10.39190306	     -7.49999987	    -41.39638160	    -15.42134865	    -17.30860649	     52.41971555	      0.83347332	     63.29983815	    115.75928027	     86.76708759	     69.52977630	    -11.80123074	     70.40436502	    124.65804756	     86.50301626
      2.91666670	     -8.10858509	     16.59205569	     10.49149992	      1.25728509	      0.77802206	     -0.18719034	     78.52449386	    -24.74212681	     13.17782702	     46.43422499	      0.81043011	      9.63258260	      2.37626070	     -7.49999987	     53.05894064	     20.71160912	    -11.90656537	     73.99682639	      1.29148826	     31.51917124	    -10.96240569	     -7.49999987	    -41.27285250	    -14.99967319	    -17.48855359	     52.06864907	      0.96198917	     63.83533983	    115.79968301	     86.71316571	     69.95862129	    -11.88690609	     71.72831076	    125.18798021	     86.56234100
      2.93333330	     -8.29184174	     16.49264612	     10.82452225	      1.25747036	      0.78017238	     -0.18768226	     78.58462503	    -24.79865705	     13.22772458	     46.42515504	      0.81027181	      9.59918842	      2.37469346	     -7.49999987	     53.33953939	     20.75076701	    -11.76755423	     74.19098327	      1.29487693	     31.59420751	    -11.15769110	     -7.49999987	    -41.43914676	    -14.64749055	    -17.70168935	     51.83239604	      0.94160356	     64.11360114	    115.25923768	     84.44456220	     70.09644072	    -12.22579514	     72.63315251	    124.90234962	     84.40743383
